<?xml version="1.0" standalone="no"?>
<!DOCTYPE svg PUBLIC "-//W3C//DTD SVG 20010904//EN"
 "http://www.w3.org/TR/2001/REC-SVG-20010904/DTD/svg10.dtd">
<svg version="1.0" xmlns="http://www.w3.org/2000/svg"
 width="640.000000pt" height="640.000000pt" viewBox="0 0 640.000000 640.000000"
 preserveAspectRatio="xMidYMid meet">
<metadata>
Created by potrace 1.11, written by Peter Selinger 2001-2013
</metadata>
<g transform="translate(0.000000,640.000000) scale(0.100000,-0.100000)"
fill="#000000" stroke="none">
<path d="M595 5416 c-38 -21 -51 -44 -318 -576 -244 -485 -278 -558 -276 -594
1 -23 6 -45 10 -51 4 -5 8 -14 9 -20 1 -5 7 -17 14 -25 13 -18 76 -64 76 -56
0 3 12 1 28 -5 15 -6 34 -12 42 -14 8 -3 40 -11 70 -20 92 -26 192 -55 250
-71 144 -40 141 -36 140 -131 -1 -29 -1 -61 -1 -70 1 -10 1 -34 0 -53 0 -19 0
-42 0 -50 0 -8 0 -40 0 -70 0 -30 0 -62 0 -70 1 -8 1 -31 0 -50 0 -19 0 -42 0
-50 0 -8 0 -40 0 -70 0 -30 0 -59 0 -65 0 -10 1 -122 1 -234 0 -35 3 -67 5
-72 3 -4 2 -10 -2 -12 -5 -3 -6 -39 -3 -81 3 -41 3 -85 0 -97 -3 -12 -3 -49 0
-81 3 -32 4 -61 2 -63 -2 -2 -3 -64 -2 -137 1 -73 1 -140 1 -148 -2 -47 0
-103 4 -110 3 -5 2 -11 -3 -14 -4 -3 -5 -29 -2 -60 3 -30 3 -62 0 -72 -4 -9
-3 -37 0 -61 4 -24 4 -46 0 -48 -3 -2 -3 -29 0 -60 3 -31 3 -58 -1 -61 -5 -3
-6 -10 -4 -17 2 -7 6 -40 9 -73 7 -98 64 -194 142 -240 39 -23 184 -75 203
-72 3 0 8 -1 11 -2 3 -1 12 -3 20 -5 8 -2 35 -8 60 -15 25 -6 54 -13 65 -15
11 -2 47 -11 80 -20 33 -9 67 -18 75 -20 8 -2 44 -11 80 -20 36 -9 74 -18 85
-20 11 -2 173 -43 360 -90 407 -103 370 -94 398 -101 12 -3 31 -7 42 -9 11 -2
20 -4 20 -5 0 -1 7 -3 15 -5 8 -1 35 -8 60 -15 25 -7 54 -14 65 -16 11 -1 47
-10 80 -19 33 -9 67 -18 75 -20 8 -2 44 -11 80 -20 36 -9 74 -18 85 -20 11 -1
47 -11 80 -21 33 -9 69 -18 80 -20 11 -1 20 -3 20 -4 0 -1 7 -3 15 -5 8 -2 52
-12 96 -23 79 -19 244 -24 299 -8 33 9 298 76 320 81 11 2 44 11 73 19 28 8
52 12 52 10 0 -3 9 0 20 6 10 6 32 12 47 15 32 4 68 13 68 15 0 1 11 4 24 6
14 2 52 12 85 20 34 9 68 18 76 20 8 2 60 15 115 29 55 14 109 28 120 30 11 2
103 25 205 50 102 26 190 48 195 49 6 1 19 5 30 9 11 3 31 8 45 11 39 8 60 13
130 31 36 9 72 19 80 20 8 2 62 16 120 30 58 15 113 29 123 31 10 2 27 6 37 9
10 3 27 7 37 9 10 2 54 14 98 25 44 12 87 23 96 26 31 7 94 43 125 72 39 36
75 88 67 97 -3 3 -2 6 4 6 10 0 22 38 30 95 5 44 5 45 4 105 -1 30 -1 82 -1
115 1 33 0 65 -1 70 -1 6 -1 13 0 17 3 25 3 219 0 223 -3 2 -2 31 1 65 3 33 3
60 0 60 -3 0 -3 42 0 92 3 51 3 116 0 145 -3 29 -3 60 0 69 4 10 3 37 0 61 -4
24 -4 46 0 48 3 2 3 28 0 59 -3 30 -3 62 0 72 4 9 3 37 0 61 -4 24 -3 46 2 49
4 3 6 9 3 13 -4 8 -6 68 -5 176 1 33 0 65 -1 70 -1 6 -1 13 0 17 3 25 3 219 0
223 -3 2 -2 31 1 65 3 33 2 60 -3 60 -4 0 -6 4 -3 9 3 5 6 52 7 105 1 90 3 98
23 106 23 9 227 67 375 106 130 35 166 51 200 90 43 49 52 118 23 172 -7 12
-10 22 -6 22 3 0 2 6 -4 13 -11 12 -115 216 -117 227 0 3 -7 16 -15 30 -41 75
-68 130 -63 130 3 0 1 6 -5 13 -6 7 -81 152 -166 322 -178 353 -183 360 -285
360 -55 -1 -175 -12 -215 -20 -20 -4 -76 -11 -161 -21 -22 -2 -56 -7 -75 -10
-37 -6 -58 -8 -155 -19 -33 -3 -67 -8 -75 -10 -8 -2 -42 -7 -75 -10 -121 -14
-283 -34 -315 -40 -8 -2 -46 -6 -85 -10 -38 -4 -79 -9 -90 -11 -39 -7 -270
-37 -460 -59 -22 -3 -56 -7 -75 -10 -19 -3 -55 -7 -80 -10 -60 -7 -129 -16
-160 -21 -14 -2 -47 -7 -75 -10 -27 -2 -61 -7 -75 -10 -13 -3 -46 -7 -72 -9
-25 -3 -59 -6 -75 -9 -152 -25 -277 -25 -398 -1 -11 2 -45 7 -75 10 -30 3 -66
7 -80 9 -14 3 -68 10 -120 16 -52 6 -106 13 -120 15 -62 9 -126 17 -240 31
-25 3 -56 7 -70 9 -14 2 -52 7 -85 11 -33 3 -67 7 -75 9 -16 3 -92 13 -155 20
-22 2 -71 9 -110 14 -38 6 -92 13 -120 16 -27 3 -66 8 -85 11 -19 3 -51 7 -70
9 -19 2 -55 7 -80 10 -25 3 -61 8 -80 10 -19 2 -55 6 -80 10 -25 3 -65 8 -90
11 -25 2 -56 6 -70 9 -54 8 -107 15 -152 20 -25 3 -97 12 -160 21 -184 26
-246 26 -293 0z m5064 -720 c66 -132 118 -242 116 -246 -3 -4 -19 -11 -37 -15
-18 -4 -37 -9 -43 -11 -72 -22 -154 -45 -171 -49 -20 -5 -167 -47 -294 -85
-85 -25 -172 -49 -196 -55 -11 -2 -157 -44 -325 -93 l-306 -88 -15 26 c-87
148 -374 619 -385 632 -18 20 -12 24 57 33 74 11 86 12 155 20 33 3 67 8 75
10 15 4 95 14 160 21 42 4 104 12 145 19 17 2 55 7 85 10 30 3 66 8 80 10 67
10 119 17 160 20 25 2 45 4 45 5 0 2 44 8 100 14 52 6 121 15 165 21 19 3 58
7 85 10 28 3 57 8 65 10 8 2 44 7 80 10 36 4 67 9 69 11 6 6 2 14 130 -240z
m-4639 219 c14 -3 45 -7 70 -10 59 -7 129 -16 160 -21 42 -7 144 -18 168 -18
12 -1 22 -3 22 -6 0 -3 12 -5 28 -6 15 0 50 -3 77 -7 28 -3 73 -9 100 -12 28
-3 61 -7 75 -10 14 -3 47 -8 74 -10 27 -3 65 -8 85 -10 59 -8 103 -14 156 -20
28 -4 61 -8 75 -10 73 -11 269 -35 282 -35 16 0 7 -19 -73 -151 -45 -74 -90
-147 -99 -164 -10 -16 -54 -90 -99 -164 -44 -74 -81 -136 -81 -137 0 -2 -10
-18 -23 -36 -19 -29 -26 -32 -47 -26 -35 11 -482 138 -500 143 -8 1 -55 15
-105 30 -49 15 -97 28 -105 29 -8 1 -46 12 -85 24 -67 21 -304 89 -335 97 -8
2 -55 16 -105 30 -49 15 -96 28 -102 28 -7 0 -13 3 -13 6 0 3 53 113 117 244
l118 238 70 -6 c39 -3 81 -7 95 -10z m1940 -280 c-3 -5 -5 -21 -4 -35 3 -39 4
-130 3 -185 0 -27 0 -81 0 -120 0 -38 1 -117 1 -175 0 -58 1 -123 1 -145 0
-22 0 -58 0 -80 0 -22 0 -47 0 -55 0 -8 1 -55 0 -105 0 -49 0 -97 0 -105 0 -8
0 -67 0 -130 -1 -63 -1 -137 -1 -165 1 -27 1 -174 1 -325 0 -151 1 -282 1
-290 0 -8 0 -55 -1 -105 0 -109 -1 -233 0 -375 0 -8 0 -82 0 -165 0 -82 0
-154 1 -160 0 -5 0 -50 -1 -100 0 -49 0 -98 0 -107 0 -147 -4 -208 -14 -208
-7 0 -30 5 -52 11 -47 12 -167 42 -312 78 -21 5 -56 15 -78 20 -22 6 -58 15
-80 21 -36 8 -105 25 -145 36 -8 2 -44 11 -80 19 -98 24 -133 33 -155 39 -28
7 -143 37 -185 47 -60 14 -113 27 -160 39 -25 6 -53 14 -63 16 -9 2 -25 6 -35
8 -9 3 -64 16 -122 31 -112 27 -167 41 -215 55 -16 4 -54 13 -83 20 -28 7 -54
15 -56 19 -5 7 -7 87 -5 121 1 8 1 35 0 60 -2 45 -3 213 -2 238 1 6 1 18 2 25
0 6 0 57 -1 112 0 55 -1 152 -1 215 0 63 0 120 0 125 -1 6 0 30 0 55 1 45 1
72 0 325 0 125 0 140 2 168 1 6 1 55 0 107 0 52 -1 134 -1 183 0 48 -1 93 -3
100 -2 14 -6 15 148 -30 66 -19 129 -36 140 -38 11 -2 74 -20 140 -40 66 -19
127 -37 135 -39 8 -2 22 -5 30 -9 8 -3 98 -29 200 -58 213 -60 269 -66 321
-30 35 23 44 35 104 137 91 155 211 349 218 352 4 2 7 8 7 12 0 5 77 136 170
291 94 155 170 286 170 291 0 4 5 8 10 8 6 0 10 7 10 15 0 8 4 15 9 15 5 0 12
10 16 23 7 20 8 19 14 -13 4 -19 4 -39 1 -45z m705 -285 c114 -190 219 -365
233 -390 13 -25 30 -52 37 -60 6 -8 25 -37 41 -65 16 -27 33 -58 39 -67 5 -9
32 -54 59 -100 97 -162 127 -171 365 -103 90 26 169 48 175 49 6 1 27 7 46 13
19 6 62 18 95 28 33 9 71 20 85 25 28 10 316 90 340 95 8 2 28 8 43 14 37 14
54 14 54 -1 2 -44 3 -95 2 -108 -1 -8 -1 -35 0 -60 2 -45 3 -213 2 -237 -1 -7
-2 -19 -2 -25 -1 -7 -1 -33 0 -58 2 -45 3 -213 2 -237 -1 -7 -2 -19 -2 -25 -1
-7 -1 -33 0 -58 2 -45 3 -213 2 -237 -1 -7 -2 -19 -2 -25 -1 -7 -1 -33 0 -58
2 -45 3 -213 2 -237 -1 -7 -2 -19 -2 -25 -1 -7 -1 -33 0 -58 2 -47 3 -206 2
-227 -1 -7 -1 -19 -2 -25 -1 -7 0 -39 2 -71 1 -31 0 -59 -2 -60 -2 -2 -83 -23
-179 -46 -96 -24 -182 -45 -190 -48 -8 -3 -22 -7 -30 -8 -8 -1 -107 -26 -220
-55 -113 -28 -212 -53 -220 -55 -8 -2 -69 -17 -135 -34 -426 -106 -653 -163
-740 -186 -55 -14 -105 -25 -112 -25 -13 0 -13 5 -14 610 0 151 -1 282 -1 290
0 8 0 56 1 105 0 109 1 233 0 375 0 8 0 83 0 165 0 83 0 155 -1 160 0 6 0 51
1 100 0 50 0 97 0 105 0 8 0 67 0 130 1 63 1 135 0 160 0 25 0 63 0 85 0 22 0
47 0 55 0 8 -1 56 0 105 0 50 0 97 0 105 0 8 0 67 0 130 1 63 1 138 1 165 -1
286 1 368 9 359 4 -5 102 -164 216 -354z"/>
</g>
</svg>
